# xmcd CD database file generated by Grip 3.0.6
# 
# Track frame offsets:
#       150
#       11255
#       30790
#       48387
#       60722
#       84345
#       92500
#       111720
#       133072
#       148810
#       170707
#       185062
#       213357
#       243642
#       261105
#       290890
#       306530
# 
# Disc length: 4326 seconds
# 
# Revision: 5
# Processed by: cddbd v1.4PL0 Copyright (c) Steve Scherf et al.
# Submitted via: Grip 3.0.6
# 
DISCID=0210e411
DTITLE=George Winston - Plains
DYEAR=1999
DGENRE=Country
TTITLE0=Dubuque
TTITLE1=Before Barbed Wire
TTITLE2=Frangenti
TTITLE3=Give Me Your Hand - La Valse...
TTITLE4=No Ke Ano Ahiahi
TTITLE5=Graduation
TTITLE6=Teach Me Tonight
TTITLE7=Rainsong (Fortune's Lullaby)
TTITLE8=Merry Go Round
TTITLE9=The Dance
TTITLE10=Cloudburst
TTITLE11=The Swan
TTITLE12=`Ike Ia Ladana (Queen's Jubilee)
TTITLE13=Plains (Eastern Montana Blues)
TTITLE14=Angel
TTITLE15=Waltz For The Lonely
TTITLE16=Ue O Muite Aruko (I Look Up When I Walk)
EXTD=
EXTT0=
EXTT1=
EXTT2=
EXTT3=
EXTT4=
EXTT5=
EXTT6=
EXTT7=
EXTT8=
EXTT9=
EXTT10=
EXTT11=
EXTT12=
EXTT13=
EXTT14=
EXTT15=
EXTT16=
PLAYORDER=
